# xmcd
#
# Track frame offsets:
#	150
#	12465
#	26229
#	37834
#	49707
#	60253
#	72961
#	84769
#	97151
#	109548
#	121654
#	134211
#	146928
#	161791
#	175637
#	188620
#	202637
#	215521
#
# Disc length: 3041 seconds
#
# Revision: 0
# Processed by: cddbd v1.4PL0 Copyright (c) Steve Scherf et al.
# Submitted via: audiograbber 1.81.03
#
DISCID=f30bdf12
DTITLE=Various Artist - Guitar In My Hand - CD 1
DYEAR=2001
DGENRE=Blues
TTITLE0=Ella Mae Morse - Jumpin' Jack
TTITLE1=Jay McShann's Kansas City Stompers - McShann's Boogie Blues
TTITLE2=Sonny Terry - Crow Jane Blues
TTITLE3=Amos Milburn - Let's Rock Awhile
TTITLE4=Tommy Douglas - Lights Out
TTITLE5=Bus Moten and His Men - It's Hard To Laugh Or Smile
TTITLE6=T Bone  Walker - Evil Hearted  Woman
TTITLE7=Clarence "Gatemouth" Brown - Guitar In My Hand
TTITLE8=Sonny Terry - Beer Garden Blues
TTITLE9=Amos Milburn - Amos' Boogie
TTITLE10=Walter Brown - Lou  Cindy Lou
TTITLE11=Floyd Dixon - Evil Lover Blues
TTITLE12=John Lee Hooker - No Mortgage On My Soul
TTITLE13=Walter Brown  - What Evil Have I Done
TTITLE14=Julia Lee and Her Boy Friends - Ugly Papa
TTITLE15=Sonny Terry - All Alone Blues
TTITLE16=Jay McShann's Kansas City Stompers - Come On Over To My House
TTITLE17=Floyd Dixon - I'm So  Worried
EXTD=
EXTT0=
EXTT1=
EXTT2=
EXTT3=
EXTT4=
EXTT5=
EXTT6=
EXTT7=
EXTT8=
EXTT9=
EXTT10=
EXTT11=
EXTT12=
EXTT13=
EXTT14=
EXTT15=
EXTT16=
EXTT17=
PLAYORDER=
